<svg xmlns="http://www.w3.org/2000/svg" xml:space="preserve" width="24" height="24" viewBox="0 0 512 512"><path d="M489.204 324.678c7.504 5.933 12.319 15.118 12.319 25.427 0 17.892-14.505 32.396-32.396 32.396H42.874c-17.892 0-32.396-14.505-32.396-32.396 0-10.649 5.138-20.098 13.071-26.003l465.655.576z" style="fill:#f7222b"/><path d="M476.448 230.927c13.849 0 25.075 11.226 25.075 25.075 0 13.848-11.226 25.075-25.075 25.075H35.552c-13.849 0-25.075-11.226-25.075-25.075 0-13.849 11.226-25.075 25.075-25.075h440.896z" style="fill:#ed732f"/><path d="M491.075 378.762v26.642c0 46.738-37.889 84.627-84.627 84.627H105.552c-46.738 0-84.627-37.889-84.627-84.627v-26.642h470.15zM335.925 230.927H52.269c-23.08 0-41.791-18.711-41.791-41.791 0-92.323 74.842-167.164 167.164-167.164h156.716c92.323 0 167.164 74.842 167.164 167.164 0 23.08-18.711 41.791-41.791 41.791H335.925z" style="fill:#ff9d3b"/><path d="M15.213 276.457c-13.302 23.376 5.186 43.848 9.628 46.914 12.413 8.566 28.841 8.526 41.235-.068a36.576 36.576 0 0 1 41.485.001l.007.005a36.574 36.574 0 0 0 41.485.001 36.576 36.576 0 0 1 41.485.001 36.551 36.551 0 0 0 41.486-.019l.006-.004c7.169-4.936 15.658-7.022 23.953-6.292v.002l.017-.001.017.001v-.002c8.294-.73 16.784 1.356 23.953 6.292l.006.004a36.55 36.55 0 0 0 41.486.019 36.574 36.574 0 0 1 41.485-.001 36.574 36.574 0 0 0 41.485-.001l.007-.005a36.574 36.574 0 0 1 41.485-.001c12.394 8.594 28.821 8.634 41.235.068 4.441-3.064 22.93-23.537 9.628-46.914H15.213z" style="fill:#21cc5a"/><path d="m185.017 320.609 148.548 108.825 138.625-99.662-38.056-5.094z" style="fill:#ffe48d"/><path d="M502.046 322.688c7.983-10.999 14.958-29.25 5.14-48.917A35.29 35.29 0 0 0 511.97 256c0-12.283-6.269-23.128-15.773-29.51 9.722-9.492 15.773-22.727 15.773-37.356 0-97.935-79.677-177.612-177.612-177.612H177.642C79.707 11.522.03 91.199.03 189.134c0 14.628 6.051 27.863 15.773 37.356C6.299 232.872.03 243.717.03 256a35.302 35.302 0 0 0 4.784 17.771c-9.821 19.675-2.838 37.932 5.149 48.929C3.634 330.33.03 340.042.03 350.105c0 10.71 3.96 20.507 10.479 28.026-.013.21-.031.418-.031.631v26.642c0 52.425 42.65 95.075 95.075 95.075h300.896c52.425 0 95.075-42.65 95.075-95.075v-26.642c0-.213-.02-.421-.031-.631 6.519-7.519 10.479-17.316 10.479-28.026-.002-10.178-3.552-19.792-9.926-27.417zm-275.933 15.076a46.413 46.413 0 0 0 11.778-5.828l.064-.044a26.17 26.17 0 0 1 17.109-4.487c.51.046 1.023.052 1.534.022h.003c.11-.006.221-.015.332-.024 6.051-.531 12.132 1.063 17.111 4.489l.06.041c15.942 10.961 37.346 10.957 53.284-.018 8.862-6.102 20.771-6.104 29.635 0 15.952 10.982 37.384 10.982 53.336-.002.014-.009.027-.02.042-.029 8.859-6.077 20.748-6.071 29.571.003a46.184 46.184 0 0 0 6.287 3.66l-112.635 80.976-107.511-78.759zM30.844 314.821c-.154-.117-12.603-11.486-9.3-26.182a35.327 35.327 0 0 0 14.007 2.884h440.896c4.972 0 9.707-1.031 14.008-2.884 3.304 14.696-9.138 26.059-9.23 26.132-8.775 6.054-20.57 6.033-29.376-.075-15.952-10.982-37.383-10.981-53.335.001l-.034.023c-8.859 6.085-20.752 6.078-29.608-.018-15.953-10.982-37.386-10.982-53.335.001-8.865 6.104-20.771 6.098-29.628-.014l-.067-.046a47.085 47.085 0 0 0-29.829-8.128c-10.563-.73-21.134 2.141-29.851 8.125l-.071.049c-8.857 6.111-20.764 6.116-29.628.014-15.95-10.983-37.383-10.984-53.335-.001-8.852 6.095-20.746 6.103-29.607.019-.013-.008-.023-.017-.036-.024-15.952-10.983-37.383-10.983-53.363.019-8.78 6.087-20.575 6.11-29.278.105zm446.517 24.101a46.506 46.506 0 0 0 8.581-2.918 21.819 21.819 0 0 1 5.132 14.1c0 12.103-9.846 21.949-21.949 21.949h-37.849l46.085-33.131zm-141.436-97.548c5.769 0 10.448-4.677 10.448-10.448s-4.678-10.448-10.448-10.448H52.269c-17.283 0-31.343-14.061-31.343-31.343 0-86.413 70.303-156.716 156.716-156.716h156.716c86.413 0 156.716 70.303 156.716 156.716 0 17.283-14.061 31.343-31.343 31.343h-51.194c-5.769 0-10.448 4.677-10.448 10.448s4.678 10.448 10.448 10.448h67.91c8.066 0 14.627 6.561 14.627 14.627s-6.561 14.627-14.627 14.627H35.552c-8.066 0-14.627-6.561-14.627-14.627s6.561-14.627 14.627-14.627h300.373zm70.523 238.209H105.552c-40.902 0-74.179-33.277-74.179-74.179v-14.036a42.681 42.681 0 0 0 11.501 1.581h105.514c5.769 0 10.448-4.677 10.448-10.448 0-5.77-4.679-10.448-10.448-10.448H42.874c-12.103 0-21.949-9.846-21.949-21.949 0-5.265 1.824-10.199 5.118-14.106a46.893 46.893 0 0 0 19.362 4.175c9.325 0 18.65-2.757 26.594-8.266 8.85-6.094 20.74-6.102 29.597-.025.016.01.029.021.044.03 15.953 10.984 37.385 10.984 53.336.002 6.997-4.817 15.888-5.814 23.684-3.026.063.048.118.101.182.147l58.717 43.016h-19.87c-5.769 0-10.448 4.677-10.448 10.448s4.678 10.448 10.448 10.448h46.707c.517 0 1.022-.05 1.518-.122l61.475 45.036a10.43 10.43 0 0 0 6.175 2.02c2.138 0 4.276-.654 6.098-1.964l62.576-44.988c.126.004.25.019.377.019h66.509c3.984 0 7.838-.558 11.501-1.581v14.036c.002 40.903-33.275 74.18-74.177 74.18z"/><path d="M131.672 161.269c-5.769 0-10.448 4.677-10.448 10.448v.651c0 5.77 4.679 10.448 10.448 10.448s10.448-4.677 10.448-10.448v-.651c-.001-5.77-4.679-10.448-10.448-10.448zM193.836 142.463c-5.769 0-10.448 4.677-10.448 10.448v.651c0 5.77 4.678 10.448 10.448 10.448 5.769 0 10.448-4.677 10.448-10.448v-.651c0-5.77-4.679-10.448-10.448-10.448zM69.507 142.463c-5.769 0-10.448 4.677-10.448 10.448v.651c0 5.77 4.679 10.448 10.448 10.448s10.448-4.677 10.448-10.448v-.651c0-5.77-4.678-10.448-10.448-10.448zM256 161.269c-5.769 0-10.448 4.677-10.448 10.448v.651c0 5.77 4.678 10.448 10.448 10.448s10.448-4.677 10.448-10.448v-.651c0-5.77-4.679-10.448-10.448-10.448zM318.164 142.463c-5.769 0-10.448 4.677-10.448 10.448v.651c0 5.77 4.678 10.448 10.448 10.448s10.448-4.677 10.448-10.448v-.651c0-5.77-4.678-10.448-10.448-10.448zM380.328 182.816c5.769 0 10.448-4.677 10.448-10.448v-.651c0-5.77-4.678-10.448-10.448-10.448-5.769 0-10.448 4.677-10.448 10.448v.651c.001 5.77 4.678 10.448 10.448 10.448zM442.493 164.01c5.769 0 10.448-4.677 10.448-10.448v-.651c0-5.77-4.678-10.448-10.448-10.448s-10.448 4.677-10.448 10.448v.651c0 5.77 4.677 10.448 10.448 10.448zM161.448 83.924c-5.769 0-10.448 4.677-10.448 10.448v.651c0 5.77 4.679 10.448 10.448 10.448s10.448-4.677 10.448-10.448v-.651c0-5.77-4.679-10.448-10.448-10.448zM223.612 102.73c-5.769 0-10.448 4.677-10.448 10.448v.651c0 5.77 4.679 10.448 10.448 10.448s10.448-4.677 10.448-10.448v-.651c0-5.77-4.679-10.448-10.448-10.448zM285.776 83.924c-5.769 0-10.448 4.677-10.448 10.448v.651c0 5.77 4.679 10.448 10.448 10.448s10.448-4.677 10.448-10.448v-.651c0-5.77-4.679-10.448-10.448-10.448zM358.388 113.829v-.651c0-5.77-4.679-10.448-10.448-10.448s-10.448 4.677-10.448 10.448v.651c0 5.77 4.678 10.448 10.448 10.448s10.448-4.678 10.448-10.448zM183.214 372.053h-.392c-5.769 0-10.448 4.677-10.448 10.448s4.678 10.448 10.448 10.448h.392c5.769 0 10.448-4.677 10.448-10.448s-4.679-10.448-10.448-10.448zM371.35 241.374h.327c5.769 0 10.448-4.677 10.448-10.448s-4.679-10.448-10.448-10.448h-.327c-5.769 0-10.448 4.677-10.448 10.448s4.678 10.448 10.448 10.448z"/></svg>